<svg width="40" height="40" viewBox="0 0 40 40" fill="none" xmlns="http://www.w3.org/2000/svg">
<g id="007-dna">
<g id="Group">
<g id="Group_2">
<path id="Vector" d="M26.248 35.0781C25.8168 35.0781 25.4668 35.4281 25.4668 35.8594C25.4668 36.2906 25.8168 36.6406 26.248 36.6406C26.6793 36.6406 27.0293 36.2906 27.0293 35.8594C27.0293 35.4281 26.6793 35.0781 26.248 35.0781Z" fill="#24BEE0"/>
</g>
</g>
<g id="Group_3">
<g id="Group_4">
<path id="Vector_2" d="M13.748 3.35938C13.3168 3.35938 12.9668 3.70937 12.9668 4.14062C12.9668 4.57187 13.3168 4.92188 13.748 4.92188C14.1793 4.92188 14.5293 4.57187 14.5293 4.14062C14.5293 3.70937 14.1793 3.35938 13.748 3.35938Z" fill="#24BEE0"/>
</g>
</g>
<g id="Group_5">
<g id="Group_6">
<path id="Vector_3" d="M34.8854 39.0923C34.4055 36.1809 33.7872 33.6561 32.7441 30.849C30.904 25.8973 28.4413 22.2559 25.414 20.0045C30.8682 15.9598 33.8072 7.60508 34.8176 0.896172C34.8885 0.425547 34.5165 0.00664063 34.0457 0.00632813C32.9555 0.00546875 31.7827 0.00398437 30.8854 0.0015625C30.8847 0.0015625 30.884 0.0015625 30.8834 0.0015625C30.5015 0.0015625 30.1754 0.269922 30.1128 0.646797C30.0371 1.10188 29.8589 2.08469 29.5469 3.35938H16.6263C16.1949 3.35938 15.845 3.70922 15.845 4.14062C15.845 4.57203 16.1949 4.91406 16.6263 4.91406H29.1327C28.8341 5.9582 28.4605 7.11406 28.0011 8.28125H11.9563C10.5947 4.855 9.97903 1.60172 9.81771 0.650547C9.75388 0.274922 9.42841 0 9.04739 0H5.88567C5.40919 0 5.04396 0.423359 5.11255 0.893906C6.05372 7.35836 9.16513 15.9337 14.5881 19.9912C9.09974 24.057 6.242 32.3212 5.17935 39.1094C5.1127 39.5809 5.4795 40 5.95286 40H9.11302C9.49489 40 9.82075 39.724 9.88357 39.3473C9.9595 38.8927 10.1378 37.912 10.449 36.6406H23.3701C23.8015 36.6406 24.1513 36.2908 24.1513 35.8594C24.1513 35.428 23.8015 35.0781 23.3701 35.0781H10.8633C11.162 34.0337 11.5356 32.8854 11.9948 31.7188H28.071C29.034 34.1238 29.7212 36.5613 30.1508 39.1807C30.1622 39.2506 30.172 39.3102 30.1803 39.3584C30.2438 39.7345 30.5695 39.9859 30.9504 39.9859C30.9518 39.9859 30.953 39.9859 30.9543 39.9859C31.923 39.9812 33.1588 39.9867 34.1159 39.9852C34.5959 39.9844 34.9641 39.5691 34.8854 39.0923ZM31.5372 1.55773C32.0358 1.55867 32.5819 1.55945 33.1321 1.56008C32.0749 7.69 29.1957 15.5977 24.0111 19.0842C23.4636 18.771 22.8989 18.4999 22.3202 18.2722C27.6308 15.3258 30.413 7.50633 31.5372 1.55773ZM19.9955 17.575C18.3893 17.0867 16.9044 16.0655 15.5657 14.5312H24.4126C23.0794 16.0636 21.5989 17.0847 19.9955 17.575ZM27.3353 9.83594C26.8012 10.9937 26.221 12.0478 25.6023 12.9688H14.3715C13.7495 12.0476 13.1657 10.9935 12.6277 9.83594H27.3353ZM8.45841 38.4375H6.86481C7.92192 32.3096 10.8011 24.3998 15.9882 20.9138C16.5349 21.2276 17.099 21.4992 17.6775 21.7273C12.3649 24.6737 9.5681 32.5256 8.45841 38.4375ZM20.0014 22.4252C21.611 22.9139 23.1004 23.9348 24.4446 25.4688H15.584C16.9172 23.9365 18.3979 22.9155 20.0014 22.4252ZM12.6608 30.1562C13.1953 28.9981 13.7757 27.9519 14.3941 27.0312H25.644C26.2678 27.9511 26.8543 28.9974 27.3956 30.1562H12.6608ZM31.6119 38.4442C30.4397 31.628 26.7442 22.3676 19.8245 20.762C12.1451 18.9999 8.19536 9.28922 6.80208 1.5625H8.39544C9.70661 8.38078 13.1175 17.3145 19.7895 19.1418C19.7951 19.1434 19.8009 19.1448 19.8065 19.1463C20.3863 19.3054 21.8076 19.5396 23.6209 20.6709C27.573 23.1345 29.9671 27.8616 31.2795 31.3933C32.4125 34.442 32.9782 37.2037 33.1967 38.44C32.675 38.4411 32.1261 38.4423 31.6119 38.4442Z" fill="#24BEE0"/>
</g>
</g>
</g>
</svg>
