<svg width="40" height="40" viewBox="0 0 40 40" fill="none" xmlns="http://www.w3.org/2000/svg">
<g id="023-stationary-bike" clip-path="url(#clip0_88_664)">
<g id="Group">
<g id="Group_2">
<path id="Vector" d="M21.5625 30.625C21.1312 30.625 20.7812 30.975 20.7812 31.4062C20.7812 31.8375 21.1312 32.1875 21.5625 32.1875C21.9937 32.1875 22.3438 31.8375 22.3438 31.4062C22.3438 30.975 21.9937 30.625 21.5625 30.625Z" fill="#24BEE0"/>
</g>
</g>
<g id="Group_3">
<g id="Group_4">
<path id="Vector_2" d="M37.6562 35.3125H37.6213C39.0595 34.147 40 32.4473 40 30.625C40 27.9858 38.3298 25.6184 35.8439 24.7342C35.8405 24.733 35.8372 24.7319 35.8338 24.7307L29.1558 22.457L31.6117 9.84375H32.5C34.6539 9.84375 36.4062 8.09141 36.4062 5.9375V2.34375C36.4062 1.05141 35.3548 0 34.0625 0C32.7676 0 31.7188 1.04883 31.7188 2.34375V5.15625H27.8125C26.5202 5.15625 25.4688 6.20766 25.4688 7.5C25.4688 8.45109 26.0485 9.27969 26.873 9.64477L24.6795 20.933L13.5537 17.145C12.8999 16.9127 12.2221 16.7497 11.5331 16.6565L10.1662 11.4062H12.7289C13.5023 11.4062 14.2295 11.105 14.7766 10.558C15.3238 10.0109 15.625 9.28359 15.625 8.51016C15.625 7.08922 14.6073 5.88789 13.205 5.65367C3.68125 4.08391 4.18078 4.11016 3.64141 4.11016C1.63352 4.11016 0 5.74687 0 7.75859C0 9.76992 1.63633 11.4062 3.64766 11.4062H5.3075L6.80219 17.1305C2.76063 18.5407 0 22.3778 0 26.7188C0 30.3023 1.87562 33.5009 4.74141 35.3125H2.34375C1.04891 35.3125 0 36.3613 0 37.6562C0 38.9486 1.05141 40 2.34375 40H37.6562C38.9512 40 40 38.9512 40 37.6562C40 36.3639 38.9486 35.3125 37.6562 35.3125ZM27.8125 6.71875H32.5C32.9314 6.71875 33.2812 6.36891 33.2812 5.9375V2.34375C33.2812 1.91258 33.6312 1.5625 34.0625 1.5625C34.4933 1.5625 34.8438 1.91297 34.8438 2.34375V5.9375C34.8438 7.22984 33.7923 8.28125 32.5 8.28125C31.5773 8.28125 28.8129 8.28125 27.8449 8.28125C27.8199 8.27922 27.7952 8.27844 27.7705 8.27883C27.3605 8.25734 27.0312 7.91383 27.0312 7.5C27.0312 7.06922 27.3817 6.71875 27.8125 6.71875ZM28.4259 9.84375H30.0199L27.663 21.9487L26.1724 21.4412L28.4259 9.84375ZM3.64766 9.84375C2.49789 9.84375 1.5625 8.90828 1.5625 7.75859C1.5625 6.60844 2.49508 5.67266 3.64141 5.67266C3.96094 5.67266 3.57047 5.64203 12.9479 7.19477C13.5938 7.30273 14.0625 7.85586 14.0625 8.51016C14.0625 8.86625 13.9237 9.20117 13.6718 9.45305C13.4198 9.705 13.085 9.84375 12.7289 9.84375H3.64766ZM9.89516 16.5667C9.36211 16.5802 8.83289 16.6355 8.31273 16.7311L6.92242 11.4062H8.55156L9.89516 16.5667ZM1.5625 26.7188C1.5625 22.824 4.18789 19.4082 7.94789 18.412C9.56055 17.9825 11.3594 18.0221 13.0348 18.6188C13.0382 18.6201 13.0416 18.6212 13.0451 18.6224L35.3252 26.2081C37.187 26.8728 38.4375 28.6472 38.4375 30.625C38.4375 33.0777 35.9811 35.2333 33.2835 35.2344L9.04328 35.2416C4.77516 34.6898 1.5625 31.0339 1.5625 26.7188ZM37.6562 38.4375H2.34375C1.91297 38.4375 1.5625 38.087 1.5625 37.6562C1.5625 37.2249 1.91242 36.875 2.34375 36.875C2.99719 36.875 30.6298 36.875 37.6562 36.875C38.087 36.875 38.4375 37.2255 38.4375 37.6562C38.4375 38.0874 38.0876 38.4375 37.6562 38.4375Z" fill="#24BEE0"/>
</g>
</g>
<g id="Group_5">
<g id="Group_6">
<path id="Vector_3" d="M29.375 25.9375C27.2211 25.9375 25.4688 27.6898 25.4688 29.8438C25.4688 31.9977 27.2211 33.75 29.375 33.75C31.5289 33.75 33.2812 31.9977 33.2812 29.8438C33.2812 27.6898 31.5289 25.9375 29.375 25.9375ZM29.375 32.1875C28.0827 32.1875 27.0312 31.1361 27.0312 29.8438C27.0312 28.5514 28.0827 27.5 29.375 27.5C30.6673 27.5 31.7188 28.5514 31.7188 29.8438C31.7188 31.1361 30.6673 32.1875 29.375 32.1875Z" fill="#24BEE0"/>
</g>
</g>
<g id="Group_7">
<g id="Group_8">
<path id="Vector_4" d="M18.4375 30.625H15.1673L14.5364 29.9941C15.2425 29.0533 15.625 27.9154 15.625 26.7188C15.625 23.7033 13.1717 21.25 10.1562 21.25C7.14078 21.25 4.6875 23.7033 4.6875 26.7188C4.6875 29.7342 7.14078 32.1875 10.1562 32.1875C11.3527 32.1875 12.4905 31.8052 13.4315 31.0989L14.2913 31.9588C14.4378 32.1052 14.6366 32.1876 14.8438 32.1876H18.4375C18.8689 32.1876 19.2188 31.8377 19.2188 31.4063C19.2188 30.9749 18.8689 30.625 18.4375 30.625ZM13.4158 28.8734L10.7087 26.1663C10.4036 25.8613 9.90891 25.8613 9.60383 26.1663C9.29875 26.4714 9.29875 26.9661 9.60383 27.2712L12.3109 29.9783C11.677 30.3989 10.9339 30.625 10.1562 30.625C8.00234 30.625 6.25 28.8727 6.25 26.7188C6.25 24.5648 8.00234 22.8125 10.1562 22.8125C12.3102 22.8125 14.0625 24.5648 14.0625 26.7188C14.0625 27.4965 13.8363 28.2397 13.4158 28.8734Z" fill="#24BEE0"/>
</g>
</g>
</g>
<defs>
<clipPath id="clip0_88_664">
<rect width="40" height="40" fill="white"/>
</clipPath>
</defs>
</svg>
