<svg width="100" height="100" viewBox="0 0 100 100" fill="none" xmlns="http://www.w3.org/2000/svg">
<g id="Group 104">
<rect id="Rectangle 12" width="100" height="100" rx="50" fill="#24BEE0" fill-opacity="0.1"/>
<g id="Group">
<g id="Group_2">
<g id="Group_3">
<path id="Vector" d="M62.9485 62.9698L62.3083 61.0491C64.2088 59.0162 65.2499 56.3879 65.2499 53.5938C65.2499 48.6731 61.9639 44.3713 57.3428 43.0264L59.2578 39.7094C59.4735 39.3357 59.3454 38.858 58.9718 38.6422L58.2952 38.2516L59.0764 36.8985L59.753 37.2891C60.1258 37.5043 60.6039 37.3777 60.8202 37.0032L62.3827 34.2969C62.5983 33.9235 62.4703 33.4454 62.0967 33.2297L56.6843 30.1047C56.3107 29.8891 55.8328 30.0171 55.6171 30.3907L54.0546 33.0969C53.8389 33.4704 53.9669 33.9484 54.3405 34.1641L55.0171 34.5547L54.2358 35.9079L53.5593 35.5172C53.1859 35.3016 52.7077 35.4296 52.4921 35.8032L46.6327 45.9523L45.9562 45.5617C45.5829 45.346 45.1047 45.474 44.889 45.8476L43.3265 48.5539C43.1107 48.9276 43.2387 49.4053 43.6124 49.6211L51.7311 54.3086C52.1022 54.523 52.5813 54.3985 52.7983 54.0227L54.3608 51.3163C54.5766 50.9427 54.4486 50.4649 54.0749 50.2492L53.3983 49.8585L53.9753 48.8592C56.6992 48.664 59 50.8515 59 53.5938C59 54.4298 58.7844 55.228 58.3734 55.9362C57.3593 55.4243 56.2393 55.1563 55.0937 55.1563C53.4574 55.1563 51.8687 55.7094 50.5865 56.7188H42.9625C41.4737 56.7188 40.1348 57.5461 39.4683 58.8782L38.7698 60.2759C38.6488 60.518 38.6618 60.8055 38.8041 61.0359C38.9465 61.2662 39.198 61.4063 39.4687 61.4063H47.76L47.2391 62.9688H36.3437V62.9687C35.0514 62.9687 34 64.0201 34 65.3125V69.2187C34 69.6501 34.3498 70 34.7812 70H64.4687C64.9002 70 65.2499 69.6501 65.2499 69.2187V65.3125C65.2499 64.0344 64.2214 62.9926 62.9485 62.9698ZM56.5796 31.8485L60.639 34.1922L59.8578 35.5453C58.9541 35.0236 56.8527 33.8102 55.7984 33.2015L56.5796 31.8485ZM56.3703 35.336L57.7234 36.1172L56.9421 37.4703L55.5891 36.6891L56.3703 35.336ZM51.8359 52.5648L45.0703 48.6586L45.8515 47.3055C46.5697 47.7201 50.9911 50.2729 51.9404 50.821C51.9404 50.8211 51.9405 50.8211 51.9407 50.8212C51.9407 50.8212 51.9408 50.8213 51.9409 50.8213L52.6172 51.2117L51.8359 52.5648ZM52.0452 49.0773L47.9858 46.7335L53.4547 37.261C55.0446 38.1789 55.9774 38.7175 56.4936 39.0156C56.3756 38.9474 56.2831 38.894 56.2724 38.8878C56.292 38.8992 56.5973 39.0754 57.514 39.6047C56.7066 41.0033 52.7296 47.8919 52.0452 49.0773ZM54.8693 47.3108L56.5346 44.4263C60.7106 45.4425 63.6874 49.2135 63.6874 53.5938C63.6874 55.7143 62.9872 57.7236 61.6954 59.3661C61.2295 58.368 60.5403 57.4842 59.6858 56.7884C60.2613 55.8264 60.5625 54.7363 60.5625 53.5938C60.5625 50.3043 58.0556 47.5963 54.8693 47.3108ZM55.0937 56.7188C57.5854 56.7188 59.7526 58.3233 60.522 60.631L61.3012 62.9687H48.8863L49.6654 60.6314C50.4511 58.2747 52.6554 56.7188 55.0937 56.7188ZM40.7326 59.8437C40.7866 59.7805 41.284 58.2734 42.9626 58.2734H49.1148C48.7779 58.7577 48.5001 59.2907 48.2889 59.8437H40.7326ZM63.6874 68.4375H35.5625V65.3125C35.5625 64.8817 35.913 64.5312 36.3437 64.5312C36.9867 64.5312 61.5778 64.5312 62.9062 64.5312C63.3371 64.5312 63.6874 64.8817 63.6874 65.3125V68.4375Z" fill="#24BEE0"/>
<path id="Vector_2" d="M56.5889 39.0704C56.6361 39.0977 56.6793 39.1226 56.7184 39.1452C56.6754 39.1204 56.6315 39.095 56.5889 39.0704Z" fill="#24BEE0"/>
<path id="Vector_3" d="M56.5835 39.0675C56.5852 39.0685 56.5869 39.0694 56.5887 39.0705C56.5869 39.0694 56.5852 39.0685 56.5835 39.0675Z" fill="#24BEE0"/>
<path id="Vector_4" d="M56.4937 39.0155C56.4962 39.017 56.4987 39.0184 56.5012 39.0199C56.4987 39.0184 56.4962 39.0169 56.4937 39.0155Z" fill="#24BEE0"/>
<path id="Vector_5" d="M56.5012 39.0199C56.5299 39.0365 56.5575 39.0524 56.5836 39.0675C56.5554 39.0512 56.5277 39.0352 56.5012 39.0199Z" fill="#24BEE0"/>
<path id="Vector_6" d="M56.7185 39.1452C56.7258 39.1494 56.733 39.1536 56.7402 39.1577C56.733 39.1536 56.726 39.1495 56.7185 39.1452Z" fill="#24BEE0"/>
<path id="Vector_7" d="M57.0425 39.3325C57.0451 39.3341 57.0474 39.3354 57.0493 39.3364C57.0475 39.3354 57.0452 39.3341 57.0425 39.3325Z" fill="#24BEE0"/>
<path id="Vector_8" d="M57.0229 39.3212C57.0312 39.3259 57.0376 39.3297 57.0426 39.3325C57.0375 39.3295 57.031 39.3258 57.0229 39.3212Z" fill="#24BEE0"/>
<path id="Vector_9" d="M57.0493 39.3364C57.0563 39.3405 57.0567 39.3407 57.0493 39.3364V39.3364Z" fill="#24BEE0"/>
<path id="Vector_10" d="M56.9138 39.258C56.9196 39.2614 56.9253 39.2647 56.9307 39.2678C56.9252 39.2646 56.9196 39.2613 56.9138 39.258Z" fill="#24BEE0"/>
<path id="Vector_11" d="M56.9304 39.2677C56.969 39.29 57.001 39.3085 57.0229 39.3212C57.0028 39.3095 56.9726 39.2921 56.9304 39.2677Z" fill="#24BEE0"/>
<path id="Vector_12" d="M56.8882 39.2435C56.8969 39.2485 56.9053 39.2533 56.9135 39.2581C56.9055 39.2534 56.897 39.2485 56.8882 39.2435Z" fill="#24BEE0"/>
<path id="Vector_13" d="M56.74 39.1577C56.7984 39.1914 56.8476 39.2198 56.8883 39.2433C56.8435 39.2175 56.7928 39.1882 56.74 39.1577Z" fill="#24BEE0"/>
</g>
</g>
</g>
</g>
</svg>
