<svg width="100" height="100" viewBox="0 0 100 100" fill="none" xmlns="http://www.w3.org/2000/svg">
<g id="Group 105">
<rect id="Rectangle 14" width="100" height="100" rx="50" fill="#24BEE0" fill-opacity="0.1"/>
<g id="Group">
<g id="Group_2">
<path id="Vector" d="M68.4272 57.3067C68.4272 55.6013 69.41 53.1178 69.8048 51.6254C70.7898 47.9032 67.9309 44.0975 63.8445 44.0447C63.8412 44.0447 63.8378 44.0447 63.8345 44.0447H58.0659C58.0625 44.0447 58.0592 44.0447 58.0558 44.0447C56.7175 44.062 55.4646 44.4804 54.4244 45.2428C53.9822 44.1858 53.2835 43.2401 52.3871 42.5068C51.3402 41.6504 50.062 41.1182 48.724 40.9678V40.1423C48.724 38.8518 47.6741 37.8019 46.3835 37.8019H44.8232V34.6811H47.9439C48.3747 34.6811 48.724 34.3318 48.724 33.9009V33.1208H52.3018L53.6335 34.4526C53.7859 34.6049 53.9856 34.6811 54.1852 34.6811C54.3848 34.6811 54.5846 34.6049 54.7368 34.4526C55.0415 34.1479 55.0415 33.6539 54.7368 33.3492L53.1765 31.7889C53.0303 31.6427 52.8318 31.5604 52.6249 31.5604H48.5899C48.2678 30.6523 47.4007 30 46.3836 30H38.5819C37.2913 30 36.2414 31.0499 36.2414 32.3405V33.9009C36.2414 34.3317 36.5907 34.681 37.0215 34.681H40.1422V37.8017H38.5819C37.2914 37.8017 36.2415 38.8516 36.2415 40.1422V40.9659C32.7355 41.3554 30 44.336 30 47.9439V48.412C30 49.1897 30 65.2724 30 66.0438C30 68.1947 31.7499 69.9446 33.9009 69.9446H51.0646C52.2688 69.9446 53.3757 69.3971 54.1035 68.4914C55.2414 69.44 56.6965 69.9368 58.0658 69.9368L63.7462 69.9376C68.0054 69.9034 70.7711 66.0364 69.805 62.3724C69.3931 60.8098 68.4272 59.0032 68.4272 57.3067ZM37.8017 33.1208V32.3406C37.8017 31.9105 38.1517 31.5605 38.5819 31.5605H46.3836C46.8137 31.5605 47.1637 31.9105 47.1637 32.3406V33.1208H44.043H40.9223H37.8017ZM43.2629 34.6811V37.8018H41.7026V34.6811H43.2629ZM37.8017 40.1423C37.8017 39.7122 38.1517 39.3622 38.5819 39.3622H40.9223H44.043H46.3835C46.8136 39.3622 47.1636 39.7122 47.1636 40.1423V40.9225H37.8017V40.1423ZM31.5603 49.1922H39.362C39.7929 49.1922 40.1422 48.8429 40.1422 48.412C40.1422 47.9811 39.7929 47.6318 39.362 47.6318H31.5698C31.7322 44.7653 34.115 42.4828 37.0215 42.4828H47.9438C50.3795 42.4828 52.5301 44.1254 53.1935 46.4373C52.9018 46.8093 52.6557 47.2086 52.4592 47.6319H45.6033C45.1725 47.6319 44.8232 47.9812 44.8232 48.4121C44.8232 48.8429 45.1725 49.1844 45.6033 49.1844H51.9769C51.8449 49.9919 51.8834 50.8254 52.0953 51.6254C52.4898 53.1168 53.4729 55.6012 53.4729 57.3067C53.4729 58.7459 52.7769 60.2645 52.3074 61.6749H31.5603V49.1922ZM51.0646 68.3844H33.9009C32.6103 68.3844 31.5604 67.3345 31.5604 66.0438V63.2353H51.937C51.7853 64.6657 52.1692 66.1228 53.0228 67.3248C52.596 67.9789 51.8666 68.3844 51.0646 68.3844ZM63.8242 68.3845L58.1539 68.3852L58.0758 68.3845C55.0408 68.3454 52.8307 65.5278 53.6329 62.6651C54.0396 61.2099 55.0332 59.2872 55.0332 57.3067C55.0332 55.3043 53.9982 52.7172 53.6036 51.2261C52.8708 48.4592 55.041 45.639 58.0711 45.5972H63.8289C66.8787 45.6394 69.0231 48.4795 68.2963 51.2263C67.902 52.7175 66.8668 55.3045 66.8668 57.3068C66.8668 59.3402 67.9084 61.3 68.2962 62.7703C69.0216 65.5218 66.8763 68.3449 63.8242 68.3845Z" fill="#24BEE0"/>
</g>
</g>
</g>
</svg>
